<svg width="74" height="74" viewBox="0 0 74 74" fill="none" xmlns="http://www.w3.org/2000/svg">
<g filter="url(#filter0_di_6_7410)">
<rect x="7" y="3" width="59.9992" height="59.9996" rx="12" fill="white" shape-rendering="crispEdges"/>
<g filter="url(#filter1_d_6_7410)">
<path d="M44.4628 14.4407C44.4873 14.4487 44.5141 14.4594 44.5359 14.4705L18.4705 40.5359C18.4598 40.5144 18.4487 40.4873 18.4407 40.4628C15.5418 33.2549 17.0171 24.6989 22.858 18.858C28.6989 13.0171 37.2549 11.5418 44.4628 14.4407Z" fill="url(#paint0_linear_6_7410)"/>
<path d="M50.5719 18.3143C50.5853 18.3223 50.5991 18.3361 50.6098 18.3468L22.3465 46.6101C22.3358 46.5994 22.322 46.5856 22.314 46.5722C21.0635 45.224 20.0322 43.7438 19.223 42.1763L46.1764 15.2229C47.7432 16.0325 49.2238 17.0637 50.5719 18.3143Z" fill="url(#paint1_linear_6_7410)"/>
<path d="M56.5865 28.9458L51.303 34.2294C51.628 30.4398 50.4478 26.5423 47.7679 23.511L51.7657 19.5132C54.278 22.252 55.883 25.5244 56.5865 28.9458Z" fill="url(#paint2_linear_6_7410)"/>
<path d="M38.2291 47.3028L32.9455 52.5864C29.5242 51.8829 26.2518 50.2775 23.5126 47.7656L27.5104 43.7678C30.5424 46.4473 34.4399 47.6274 38.2291 47.3028Z" fill="url(#paint3_linear_6_7410)"/>
<path d="M56.903 31.0215L35.0218 52.9026H35.0165L56.9003 31.0188L56.903 31.0215Z" fill="#258ACE"/>
<path d="M39.9505 18.9527C39.9803 18.9554 40.0071 18.9608 40.037 18.9688L22.9686 36.0372C22.9606 36.0073 22.9552 35.9805 22.9525 35.9507C21.9918 31.3684 23.2936 26.4067 26.8501 22.8503C30.4065 19.2934 35.3678 17.9916 39.9505 18.9527Z" fill="url(#paint4_linear_6_7410)"/>
<path d="M46.5772 22.3094C46.5906 22.3174 46.6044 22.3312 46.6151 22.3419L26.3421 42.615C26.3314 42.6043 26.3176 42.5905 26.3095 42.5771C25.0456 41.1723 24.1116 39.578 23.5052 37.8945L41.8946 19.5051C43.5781 20.1115 45.1724 21.0451 46.5772 22.3094Z" fill="url(#paint5_linear_6_7410)"/>
<path d="M50.7326 37.193L41.194 46.7312C41.1913 46.7339 41.1886 46.7312 41.1859 46.7339L50.7353 37.1846C50.7326 37.1876 50.7352 37.1903 50.7326 37.193Z" fill="#258ACE"/>
<path d="M44.4628 14.4407L18.4407 40.4628C15.5418 33.2549 17.0171 24.6989 22.858 18.858C28.6989 13.0171 37.2549 11.5418 44.4628 14.4407Z" fill="url(#paint6_linear_6_7410)"/>
<path d="M44.4628 14.4407C44.4873 14.4487 44.5141 14.4594 44.5359 14.4705L18.4705 40.5359C18.4598 40.5144 18.4487 40.4873 18.4407 40.4628C15.5418 33.2549 17.0171 24.6989 22.858 18.858C28.6989 13.0171 37.2549 11.5418 44.4628 14.4407Z" fill="url(#paint7_linear_6_7410)"/>
<path d="M50.6098 18.3463L22.3465 46.6096C22.3358 46.5989 22.322 46.5851 22.314 46.5717C21.0635 45.2236 20.0322 43.7433 19.223 42.1758L46.1764 15.2224C47.7435 16.0316 49.2242 17.0628 50.5719 18.3134C50.5853 18.3222 50.5987 18.3356 50.6098 18.3463Z" fill="url(#paint8_linear_6_7410)"/>
<path d="M44.5359 14.4705L18.4705 40.5359C18.4598 40.5144 18.4487 40.4873 18.4407 40.4628C15.5418 33.2549 17.0171 24.6989 22.858 18.858C28.6989 13.0171 37.2549 11.5418 44.4628 14.4407C44.4873 14.4487 44.5141 14.4598 44.5359 14.4705Z" fill="url(#paint9_linear_6_7410)"/>
<path d="M44.5359 14.4705L18.4705 40.5359C18.4598 40.5144 18.4487 40.4873 18.4407 40.4628C15.5418 33.2549 17.0171 24.6989 22.858 18.858C28.6989 13.0171 37.2549 11.5418 44.4628 14.4407C44.4873 14.4487 44.5141 14.4598 44.5359 14.4705Z" fill="url(#paint10_linear_6_7410)"/>
<path d="M51.1423 47.1426C46.733 51.5519 40.7758 53.4708 35.0214 52.9024L56.9021 31.0212C57.4705 36.7756 55.5513 42.7333 51.1423 47.1426Z" fill="url(#paint11_linear_6_7410)"/>
<path d="M56.903 31.0215L35.0218 52.9026H35.0165L56.9003 31.0188L56.903 31.0215Z" fill="#258ACE"/>
<path d="M50.6097 18.3463L22.3464 46.6096C22.3357 46.5988 22.3219 46.5851 22.3138 46.5717L50.5718 18.3137C50.5852 18.3221 50.5986 18.3355 50.6097 18.3463Z" fill="#258ACE"/>
<path d="M56.903 31.0215L35.0218 52.9026H35.0165L56.9003 31.0188L56.903 31.0215Z" fill="#258ACE"/>
</g>
</g>
<defs>
<filter id="filter0_di_6_7410" x="0" y="0" width="73.9992" height="73.9995" filterUnits="userSpaceOnUse" color-interpolation-filters="sRGB">
<feFlood flood-opacity="0" result="BackgroundImageFix"/>
<feColorMatrix in="SourceAlpha" type="matrix" values="0 0 0 0 0 0 0 0 0 0 0 0 0 0 0 0 0 0 127 0" result="hardAlpha"/>
<feOffset dy="4"/>
<feGaussianBlur stdDeviation="3.5"/>
<feComposite in2="hardAlpha" operator="out"/>
<feColorMatrix type="matrix" values="0 0 0 0 0.454902 0 0 0 0 0.454902 0 0 0 0 0.454902 0 0 0 0.08 0"/>
<feBlend mode="normal" in2="BackgroundImageFix" result="effect1_dropShadow_6_7410"/>
<feBlend mode="normal" in="SourceGraphic" in2="effect1_dropShadow_6_7410" result="shape"/>
<feColorMatrix in="SourceAlpha" type="matrix" values="0 0 0 0 0 0 0 0 0 0 0 0 0 0 0 0 0 0 127 0" result="hardAlpha"/>
<feOffset/>
<feGaussianBlur stdDeviation="2"/>
<feComposite in2="hardAlpha" operator="arithmetic" k2="-1" k3="1"/>
<feColorMatrix type="matrix" values="0 0 0 0 0.454902 0 0 0 0 0.454902 0 0 0 0 0.454902 0 0 0 0.22 0"/>
<feBlend mode="normal" in2="shape" result="effect2_innerShadow_6_7410"/>
</filter>
<filter id="filter1_d_6_7410" x="12.9994" y="12.9995" width="48.0002" height="48.0004" filterUnits="userSpaceOnUse" color-interpolation-filters="sRGB">
<feFlood flood-opacity="0" result="BackgroundImageFix"/>
<feColorMatrix in="SourceAlpha" type="matrix" values="0 0 0 0 0 0 0 0 0 0 0 0 0 0 0 0 0 0 127 0" result="hardAlpha"/>
<feOffset dy="4.00008"/>
<feGaussianBlur stdDeviation="2.00004"/>
<feComposite in2="hardAlpha" operator="out"/>
<feColorMatrix type="matrix" values="0 0 0 0 0.454902 0 0 0 0 0.454902 0 0 0 0 0.454902 0 0 0 0.12 0"/>
<feBlend mode="normal" in2="BackgroundImageFix" result="effect1_dropShadow_6_7410"/>
<feBlend mode="normal" in="SourceGraphic" in2="effect1_dropShadow_6_7410" result="shape"/>
</filter>
<linearGradient id="paint0_linear_6_7410" x1="16.9994" y1="26.7677" x2="44.5359" y2="26.7677" gradientUnits="userSpaceOnUse">
<stop stop-color="#258ACE"/>
<stop offset="1" stop-color="#6233E3"/>
</linearGradient>
<linearGradient id="paint1_linear_6_7410" x1="19.2228" y1="30.9165" x2="50.6097" y2="30.9165" gradientUnits="userSpaceOnUse">
<stop stop-color="#258ACE"/>
<stop offset="1" stop-color="#6233E3"/>
</linearGradient>
<linearGradient id="paint2_linear_6_7410" x1="53.1652" y1="25.2405" x2="29.2523" y2="49.1534" gradientUnits="userSpaceOnUse">
<stop stop-color="#41209F"/>
<stop offset="0.9946" stop-color="#23083D"/>
</linearGradient>
<linearGradient id="paint3_linear_6_7410" x1="53.1647" y1="25.2407" x2="29.2517" y2="49.1537" gradientUnits="userSpaceOnUse">
<stop stop-color="#41209F"/>
<stop offset="0.9946" stop-color="#23083D"/>
</linearGradient>
<linearGradient id="paint4_linear_6_7410" x1="22.6462" y1="27.3418" x2="40.037" y2="27.3418" gradientUnits="userSpaceOnUse">
<stop stop-color="#258ACE"/>
<stop offset="1" stop-color="#6233E3"/>
</linearGradient>
<linearGradient id="paint5_linear_6_7410" x1="23.5052" y1="31.06" x2="46.615" y2="31.06" gradientUnits="userSpaceOnUse">
<stop stop-color="#258ACE"/>
<stop offset="1" stop-color="#6233E3"/>
</linearGradient>
<linearGradient id="paint6_linear_6_7410" x1="16.9994" y1="26.7312" x2="44.4628" y2="26.7312" gradientUnits="userSpaceOnUse">
<stop stop-color="#258ACE"/>
<stop offset="1" stop-color="#6233E3"/>
</linearGradient>
<linearGradient id="paint7_linear_6_7410" x1="16.9994" y1="26.7677" x2="44.5359" y2="26.7677" gradientUnits="userSpaceOnUse">
<stop stop-color="#258ACE"/>
<stop offset="1" stop-color="#6233E3"/>
</linearGradient>
<linearGradient id="paint8_linear_6_7410" x1="26.7416" y1="38.436" x2="43.818" y2="21.3596" gradientUnits="userSpaceOnUse">
<stop stop-color="#258ACE"/>
<stop offset="1" stop-color="#6233E3"/>
</linearGradient>
<linearGradient id="paint9_linear_6_7410" x1="16.9994" y1="26.7677" x2="44.5359" y2="26.7677" gradientUnits="userSpaceOnUse">
<stop stop-color="#258ACE"/>
<stop offset="1" stop-color="#6233E3"/>
</linearGradient>
<linearGradient id="paint10_linear_6_7410" x1="19.3335" y1="31.0277" x2="36.4098" y2="13.9514" gradientUnits="userSpaceOnUse">
<stop stop-color="#258ACE"/>
<stop offset="1" stop-color="#6233E3"/>
</linearGradient>
<linearGradient id="paint11_linear_6_7410" x1="60.5139" y1="32.5901" x2="36.6008" y2="56.5032" gradientUnits="userSpaceOnUse">
<stop stop-color="#41209F"/>
<stop offset="0.9946" stop-color="#23083D"/>
</linearGradient>
</defs>
</svg>
