<svg width="978" height="235" viewBox="0 0 978 235" fill="none" xmlns="http://www.w3.org/2000/svg" xmlns:xlink="http://www.w3.org/1999/xlink">
<mask id="mask0_33_128" style="mask-type:alpha" maskUnits="userSpaceOnUse" x="0" y="0" width="978" height="235">
<path d="M110.474 234.68C89.8234 234.68 71.106 230.153 54.3213 221.1C37.6383 212.046 24.4141 198.822 14.6484 181.427C4.88281 163.93 0 142.619 0 117.493C0 92.1631 4.88281 70.7499 14.6484 53.2532C24.4141 35.7564 37.6383 22.5321 54.3213 13.5803C71.106 4.52677 89.8234 0 110.474 0C131.124 0 149.79 4.52677 166.473 13.5803C183.156 22.5321 196.381 35.7564 206.146 53.2532C216.014 70.7499 220.947 92.1631 220.947 117.493C220.947 142.721 216.014 164.083 206.146 181.58C196.381 198.975 183.156 212.199 166.473 221.252C149.79 230.204 131.124 234.68 110.474 234.68ZM110.474 179.749C125.427 179.749 136.871 174.306 144.806 163.422C152.842 152.435 156.86 137.126 156.86 117.493C156.86 97.758 152.842 82.3975 144.806 71.4111C136.871 60.4248 125.427 54.9316 110.474 54.9316C95.6217 54.9316 84.1777 60.4248 76.1414 71.4111C68.1051 82.3975 64.0869 97.758 64.0869 117.493C64.0869 137.126 68.1051 152.435 76.1414 163.422C84.1777 174.306 95.6217 179.749 110.474 179.749Z" fill="black"/>
<path d="M301.208 3.66211V231.018H240.173V3.66211H301.208Z" fill="black"/>
<path d="M374.451 231.018L316.772 69.8853H380.249L399.933 138.245C401.764 144.552 403.493 150.859 405.121 157.166C406.85 163.371 408.579 169.627 410.309 175.934C411.835 169.627 413.411 163.371 415.039 157.166C416.768 150.859 418.498 144.552 420.227 138.245L439.453 69.8853H502.319L444.641 231.018H374.451Z" fill="black"/>
<path d="M589.142 234.68C572.459 234.68 557.658 231.12 544.739 223.999C531.82 216.777 521.698 206.807 514.374 194.092C507.151 181.376 503.54 166.829 503.54 150.452C503.54 133.972 507.151 119.425 514.374 106.812C521.596 94.0959 531.514 84.1777 544.128 77.0569C556.844 69.8344 571.442 66.2231 587.921 66.2231C604.401 66.2231 618.998 69.7327 631.714 76.7517C644.43 83.7708 654.348 93.4855 661.469 105.896C668.691 118.306 672.302 132.599 672.302 148.773V165.1H562.744C562.948 173.645 565.592 180.308 570.679 185.089C575.765 189.87 582.733 192.261 591.583 192.261C598.094 192.261 603.638 191.04 608.215 188.599C612.895 186.157 616.048 182.749 617.676 178.375H671.692C669.759 189.362 664.927 199.076 657.196 207.52C649.465 215.963 639.699 222.626 627.899 227.509C616.201 232.29 603.282 234.68 589.142 234.68ZM563.202 130.92H615.997C614.98 124.308 612.183 119.171 607.605 115.509C603.027 111.745 597.026 109.863 589.6 109.863C582.174 109.863 576.172 111.745 571.594 115.509C567.017 119.171 564.219 124.308 563.202 130.92Z" fill="black"/>
<path d="M691.833 231.018V69.8853H751.038V99.1821H751.343C754.293 88.2975 758.87 80.719 765.076 76.4465C771.281 72.0723 779.928 69.8853 791.016 69.8853H806.274V118.713H783.997C774.434 118.713 766.856 121.867 761.261 128.174C755.666 134.481 752.869 143.026 752.869 153.809V231.018H691.833Z" fill="black"/>
<path d="M871.277 233.917C855.103 233.917 841.878 230.001 831.604 222.168C821.431 214.335 816.345 202.433 816.345 186.462C816.345 174.459 819.092 164.846 824.585 157.623C830.078 150.299 837.504 144.857 846.863 141.296C856.221 137.736 866.699 135.6 878.296 134.888C892.537 133.972 902.608 132.497 908.508 130.463C914.408 128.428 917.358 125.224 917.358 120.85V120.239C917.358 116.679 915.68 113.881 912.323 111.847C909.068 109.711 904.643 108.643 899.048 108.643C886.739 108.643 880.025 113.525 878.906 123.291H823.059C824.382 104.98 831.604 90.8915 844.727 81.0242C857.849 71.1568 876.77 66.2231 901.489 66.2231C926.412 66.2231 945.333 71.1568 958.252 81.0242C971.273 90.8915 977.783 104.98 977.783 123.291V231.018H918.274V208.435H917.664C912.374 217.997 905.863 224.66 898.132 228.424C890.503 232.086 881.551 233.917 871.277 233.917ZM891.113 195.923C897.725 195.923 903.829 194.041 909.424 190.277C915.12 186.513 917.969 181.071 917.969 173.95V161.133C912.17 163.167 904.032 165.1 893.555 166.931C887.349 167.948 882.416 169.83 878.754 172.577C875.193 175.222 873.413 178.63 873.413 182.8C873.413 186.869 875.041 190.074 878.296 192.413C881.653 194.753 885.925 195.923 891.113 195.923Z" fill="black"/>
</mask>
<g mask="url(#mask0_33_128)">
<rect x="-124" y="-50" width="1134" height="304" fill="url(#pattern0_33_128)"/>
</g>
<defs>
<pattern id="pattern0_33_128" patternUnits="userSpaceOnUse" patternTransform="matrix(5.643 0 0 5.643 -124 -50)" preserveAspectRatio="none" viewBox="0 0 62.7 62.7" width="1" height="1">
<g id="pattern0_33_128_inner">
<circle cx="15" cy="15" r="15" fill="black"/>
</g>
</pattern></defs>
</svg>
