<svg width="24" height="24" viewBox="0 0 24 24" fill="none" xmlns="http://www.w3.org/2000/svg">
<path d="M16.4776 0.864678C16.4923 0.869501 16.5084 0.875932 16.5215 0.882593L0.882594 16.5215C0.876163 16.5086 0.869502 16.4923 0.864679 16.4776C-0.874584 12.153 0.0105483 7.01951 3.51503 3.51503C7.01951 0.010551 12.153 -0.874585 16.4776 0.864678Z" fill="url(#paint0_linear_6_5489)"/>
<path d="M20.1431 3.18877C20.1512 3.19359 20.1595 3.20186 20.1659 3.20829L3.20824 20.1659C3.20181 20.1595 3.19355 20.1512 3.18872 20.1432C2.4384 19.3343 1.81968 18.4462 1.33417 17.5057L17.5059 1.33398C18.4459 1.81973 19.3343 2.43845 20.1431 3.18877Z" fill="url(#paint1_linear_6_5489)"/>
<path d="M23.7513 9.56764L20.5812 12.7377C20.7762 10.464 20.0682 8.12557 18.4603 6.30684L20.8589 3.9082C22.3662 5.55147 23.3292 7.51488 23.7513 9.56764Z" fill="url(#paint2_linear_6_5489)"/>
<path d="M12.7373 20.5814L9.56726 23.7515C7.5145 23.3294 5.55109 22.3662 3.90759 20.8591L6.30623 18.4604C8.12542 20.0681 10.4639 20.7762 12.7373 20.5814Z" fill="url(#paint3_linear_6_5489)"/>
<path d="M23.9416 10.8131L10.8132 23.9416H10.8099L23.94 10.8115L23.9416 10.8131Z" fill="#258ACE"/>
<path d="M13.7704 3.57193C13.7883 3.57354 13.8044 3.57675 13.8223 3.58158L3.58147 13.8224C3.57664 13.8045 3.57343 13.7884 3.57182 13.7705C2.99536 11.0212 3.77645 8.04423 5.91028 5.9104C8.04411 3.77634 11.0208 2.99524 13.7704 3.57193Z" fill="url(#paint4_linear_6_5489)"/>
<path d="M17.7461 5.58561C17.7541 5.59043 17.7624 5.5987 17.7688 5.60513L5.60526 17.7687C5.59883 17.7623 5.59056 17.754 5.58573 17.746C4.82738 16.9031 4.26699 15.9465 3.9032 14.9365L14.9366 3.90308C15.9467 4.26687 16.9032 4.82702 17.7461 5.58561Z" fill="url(#paint5_linear_6_5489)"/>
<path d="M20.2389 14.5158L14.5159 20.2386C14.5143 20.2402 14.5127 20.2386 14.511 20.2402L20.2405 14.5107C20.2389 14.5126 20.2405 14.5142 20.2389 14.5158Z" fill="#258ACE"/>
<path d="M16.4776 0.864678L0.864679 16.4776C-0.874584 12.153 0.0105483 7.01951 3.51503 3.51503C7.01951 0.010551 12.153 -0.874585 16.4776 0.864678Z" fill="url(#paint6_linear_6_5489)"/>
<path d="M16.4776 0.864678C16.4923 0.869501 16.5084 0.875932 16.5215 0.882593L0.882594 16.5215C0.876163 16.5086 0.869502 16.4923 0.864679 16.4776C-0.874584 12.153 0.0105483 7.01951 3.51503 3.51503C7.01951 0.010551 12.153 -0.874585 16.4776 0.864678Z" fill="url(#paint7_linear_6_5489)"/>
<path d="M20.1659 3.20805L3.20824 20.1657C3.20181 20.1593 3.19355 20.151 3.18872 20.143C2.4384 19.3341 1.81968 18.4459 1.33417 17.5055L17.5059 1.33374C18.4461 1.81925 19.3345 2.43798 20.1431 3.1883C20.1512 3.19358 20.1592 3.20162 20.1659 3.20805Z" fill="url(#paint8_linear_6_5489)"/>
<path d="M16.5215 0.882593L0.882594 16.5215C0.876163 16.5086 0.869502 16.4923 0.864679 16.4776C-0.874584 12.153 0.0105483 7.01951 3.51503 3.51503C7.01951 0.010551 12.153 -0.874585 16.4776 0.864678C16.4923 0.869501 16.5084 0.876162 16.5215 0.882593Z" fill="url(#paint9_linear_6_5489)"/>
<path d="M16.5215 0.882593L0.882594 16.5215C0.876163 16.5086 0.869502 16.4923 0.864679 16.4776C-0.874584 12.153 0.0105483 7.01951 3.51503 3.51503C7.01951 0.010551 12.153 -0.874585 16.4776 0.864678C16.4923 0.869501 16.5084 0.876162 16.5215 0.882593Z" fill="url(#paint10_linear_6_5489)"/>
<path d="M20.4856 20.4856C17.84 23.1311 14.2657 24.2825 10.8132 23.9414L23.9414 10.813C24.2824 14.2656 23.1309 17.8401 20.4856 20.4856Z" fill="url(#paint11_linear_6_5489)"/>
<path d="M23.9416 10.8131L10.8132 23.9416H10.8099L23.94 10.8115L23.9416 10.8131Z" fill="#258ACE"/>
<path d="M20.1658 3.208L3.20818 20.1656C3.20175 20.1592 3.19348 20.1509 3.18866 20.1429L20.1431 3.18848C20.1511 3.19353 20.1592 3.20157 20.1658 3.208Z" fill="#258ACE"/>
<path d="M23.9416 10.8131L10.8132 23.9416H10.8099L23.94 10.8115L23.9416 10.8131Z" fill="#258ACE"/>
<defs>
<linearGradient id="paint0_linear_6_5489" x1="-6.11481e-05" y1="8.26074" x2="16.5215" y2="8.26074" gradientUnits="userSpaceOnUse">
<stop stop-color="#258ACE"/>
<stop offset="1" stop-color="#6233E3"/>
</linearGradient>
<linearGradient id="paint1_linear_6_5489" x1="1.33405" y1="10.75" x2="20.1658" y2="10.75" gradientUnits="userSpaceOnUse">
<stop stop-color="#258ACE"/>
<stop offset="1" stop-color="#6233E3"/>
</linearGradient>
<linearGradient id="paint2_linear_6_5489" x1="21.6986" y1="7.34452" x2="7.35112" y2="21.692" gradientUnits="userSpaceOnUse">
<stop stop-color="#41209F"/>
<stop offset="0.9946" stop-color="#23083D"/>
</linearGradient>
<linearGradient id="paint3_linear_6_5489" x1="21.6985" y1="7.34439" x2="7.35098" y2="21.6919" gradientUnits="userSpaceOnUse">
<stop stop-color="#41209F"/>
<stop offset="0.9946" stop-color="#23083D"/>
</linearGradient>
<linearGradient id="paint4_linear_6_5489" x1="3.38802" y1="8.60528" x2="13.8223" y2="8.60528" gradientUnits="userSpaceOnUse">
<stop stop-color="#258ACE"/>
<stop offset="1" stop-color="#6233E3"/>
</linearGradient>
<linearGradient id="paint5_linear_6_5489" x1="3.90318" y1="10.8359" x2="17.7688" y2="10.8359" gradientUnits="userSpaceOnUse">
<stop stop-color="#258ACE"/>
<stop offset="1" stop-color="#6233E3"/>
</linearGradient>
<linearGradient id="paint6_linear_6_5489" x1="-6.11481e-05" y1="8.23883" x2="16.4777" y2="8.23883" gradientUnits="userSpaceOnUse">
<stop stop-color="#258ACE"/>
<stop offset="1" stop-color="#6233E3"/>
</linearGradient>
<linearGradient id="paint7_linear_6_5489" x1="-6.11481e-05" y1="8.26074" x2="16.5215" y2="8.26074" gradientUnits="userSpaceOnUse">
<stop stop-color="#258ACE"/>
<stop offset="1" stop-color="#6233E3"/>
</linearGradient>
<linearGradient id="paint8_linear_6_5489" x1="5.84525" y1="15.2616" x2="16.0909" y2="5.01601" gradientUnits="userSpaceOnUse">
<stop stop-color="#258ACE"/>
<stop offset="1" stop-color="#6233E3"/>
</linearGradient>
<linearGradient id="paint9_linear_6_5489" x1="-6.11481e-05" y1="8.26074" x2="16.5215" y2="8.26074" gradientUnits="userSpaceOnUse">
<stop stop-color="#258ACE"/>
<stop offset="1" stop-color="#6233E3"/>
</linearGradient>
<linearGradient id="paint10_linear_6_5489" x1="1.40035" y1="10.8167" x2="11.646" y2="0.571092" gradientUnits="userSpaceOnUse">
<stop stop-color="#258ACE"/>
<stop offset="1" stop-color="#6233E3"/>
</linearGradient>
<linearGradient id="paint11_linear_6_5489" x1="26.1084" y1="11.7543" x2="11.7608" y2="26.1018" gradientUnits="userSpaceOnUse">
<stop stop-color="#41209F"/>
<stop offset="0.9946" stop-color="#23083D"/>
</linearGradient>
</defs>
</svg>
