<svg width="400" height="400" viewBox="0 0 400 400" fill="none" xmlns="http://www.w3.org/2000/svg" xmlns:xlink="http://www.w3.org/1999/xlink">
<g clip-path="url(#clip0_69_635)">
<rect width="400" height="400" rx="12" fill="#FCFCFC"/>
<mask id="mask0_69_635" style="mask-type:alpha" maskUnits="userSpaceOnUse" x="0" y="-30" width="400" height="568">
<rect width="400" height="568" transform="translate(0 -30)" fill="url(#pattern0_69_635)"/>
</mask>
<g mask="url(#mask0_69_635)">
<path d="M72.9531 220.434V203.246H134.672V220.434H113.969V276H93.6562V220.434H72.9531ZM154.301 277.172C148.734 277.172 143.835 276.081 139.604 273.9C135.372 271.687 132.068 268.562 129.691 264.525C127.348 260.489 126.176 255.72 126.176 250.219C126.176 244.717 127.348 239.965 129.691 235.961C132.068 231.924 135.372 228.799 139.604 226.586C143.835 224.372 148.734 223.266 154.301 223.266C159.9 223.266 164.799 224.372 168.998 226.586C173.23 228.799 176.518 231.924 178.861 235.961C181.238 239.965 182.426 244.717 182.426 250.219C182.426 255.72 181.238 260.489 178.861 264.525C176.518 268.562 173.23 271.687 168.998 273.9C164.799 276.081 159.9 277.172 154.301 277.172ZM154.301 261.938C156.612 261.938 158.581 260.961 160.209 259.008C161.869 257.022 162.699 254.092 162.699 250.219C162.699 246.345 161.869 243.432 160.209 241.479C158.581 239.493 156.612 238.5 154.301 238.5C151.99 238.5 150.004 239.493 148.344 241.479C146.716 243.432 145.902 246.345 145.902 250.219C145.902 254.092 146.716 257.022 148.344 259.008C150.004 260.961 151.99 261.938 154.301 261.938ZM215.043 277.172C209.477 277.172 204.577 276.081 200.346 273.9C196.114 271.687 192.81 268.562 190.434 264.525C188.09 260.489 186.918 255.72 186.918 250.219C186.918 244.717 188.09 239.965 190.434 235.961C192.81 231.924 196.114 228.799 200.346 226.586C204.577 224.372 209.477 223.266 215.043 223.266C220.642 223.266 225.541 224.372 229.74 226.586C233.972 228.799 237.26 231.924 239.604 235.961C241.98 239.965 243.168 244.717 243.168 250.219C243.168 255.72 241.98 260.489 239.604 264.525C237.26 268.562 233.972 271.687 229.74 273.9C225.541 276.081 220.642 277.172 215.043 277.172ZM215.043 261.938C217.354 261.938 219.324 260.961 220.951 259.008C222.611 257.022 223.441 254.092 223.441 250.219C223.441 246.345 222.611 243.432 220.951 241.479C219.324 239.493 217.354 238.5 215.043 238.5C212.732 238.5 210.746 239.493 209.086 241.479C207.458 243.432 206.645 246.345 206.645 250.219C206.645 254.092 207.458 257.022 209.086 259.008C210.746 260.961 212.732 261.938 215.043 261.938ZM269.145 203.246V276H249.613V203.246H269.145ZM301.859 277.318C296.749 277.318 292.24 276.57 288.334 275.072C284.46 273.542 281.368 271.41 279.057 268.676C276.778 265.941 275.46 262.768 275.102 259.154H294.34C294.568 260.684 295.3 261.938 296.537 262.914C297.807 263.858 299.483 264.33 301.566 264.33C303.487 264.33 304.968 264.037 306.01 263.451C307.084 262.833 307.621 262.019 307.621 261.01C307.621 259.35 305.701 258.21 301.859 257.592L292.191 256.029C287.016 255.183 283.061 253.458 280.326 250.854C277.624 248.249 276.273 244.864 276.273 240.697C276.273 235.359 278.422 231.143 282.719 228.051C287.048 224.958 293.07 223.412 300.785 223.412C308.565 223.412 314.685 225.04 319.145 228.295C323.637 231.55 325.948 235.977 326.078 241.576H308.305C308.272 240.079 307.605 238.826 306.303 237.816C305.033 236.807 303.454 236.303 301.566 236.303C299.678 236.303 298.23 236.628 297.221 237.279C296.212 237.898 295.707 238.679 295.707 239.623C295.707 241.283 297.302 242.39 300.492 242.943L311.527 244.799C316.964 245.71 320.967 247.305 323.539 249.584C326.143 251.83 327.445 254.89 327.445 258.764C327.445 262.41 326.387 265.632 324.271 268.432C322.156 271.199 319.177 273.38 315.336 274.975C311.495 276.537 307.003 277.318 301.859 277.318Z" fill="black"/>
<rect y="-30" width="400" height="391" fill="url(#paint0_radial_69_635)"/>
<circle cx="322" cy="67" r="24" fill="#C59FCA"/>
</g>
<rect width="400" height="100" transform="translate(0 300)" fill="white"/>
<g filter="url(#filter0_d_69_635)">
<path d="M90 121.615C90 116.876 90 114.507 90.9223 112.697C91.7335 111.105 93.0279 109.81 94.6201 108.999C96.4301 108.077 98.7996 108.077 103.538 108.077H296.462C301.2 108.077 303.57 108.077 305.38 108.999C306.972 109.81 308.267 111.105 309.078 112.697C310 114.507 310 116.876 310 121.615V150.385C310 155.124 310 157.493 309.078 159.303C308.267 160.895 306.972 162.19 305.38 163.001C303.57 163.923 301.2 163.923 296.462 163.923H103.538C98.7996 163.923 96.4301 163.923 94.6201 163.001C93.0279 162.19 91.7335 160.895 90.9223 159.303C90 157.493 90 155.124 90 150.385V121.615Z" fill="white"/>
<rect x="100.154" y="118.231" width="35.5385" height="35.5385" rx="5.92308" fill="#2278F1"/>
<path d="M112.5 131.497H111.676C110.179 131.497 109.43 131.497 108.965 131.058C108.5 130.619 108.5 129.912 108.5 128.499C108.5 127.086 108.5 126.38 108.965 125.941C109.43 125.502 110.179 125.502 111.676 125.502H123.323C124.821 125.502 125.57 125.502 126.035 125.941C126.5 126.38 126.5 127.086 126.5 128.499C126.5 129.912 126.5 130.619 126.035 131.058C125.57 131.497 124.821 131.497 123.323 131.497H122" stroke="white" stroke-width="1.5" stroke-linecap="round" stroke-linejoin="round"/>
<path d="M123.529 145.491C123.48 143.778 123.62 143.552 123.751 143.171C123.883 142.789 124.698 141.436 125.023 140.453C126.076 137.275 125.271 136.738 124.01 135.772C122.566 134.666 120.121 134.103 118.594 134.225V130.135C118.594 129.272 117.769 128.521 116.843 128.521C115.917 128.521 115.097 129.272 115.097 130.135V137.887L113.125 136.209C112.594 135.672 111.743 135.721 111.126 136.128C110.935 136.254 110.779 136.432 110.681 136.639C110.4 137.228 110.481 137.894 110.923 138.44L112.043 139.884M112.043 139.884C112.311 140.208 112.581 140.586 112.921 141.016M112.043 139.884L112.921 141.016M115.028 145.497V144.551C115.1 143.388 114.045 142.455 112.921 141.016M112.921 141.016C112.84 140.912 112.998 141.113 112.921 141.016ZM112.921 141.016L114.028 142.37" stroke="white" stroke-width="1.5" stroke-linecap="round" stroke-linejoin="round"/>
<path d="M144.26 131.231L147.836 121.381H149.608L153.157 131.231H151.564L150.692 128.672H146.719L145.82 131.231H144.26ZM147.162 127.423H150.262L149.667 125.678C149.535 125.272 149.394 124.838 149.244 124.376C149.094 123.913 148.922 123.362 148.728 122.723C148.53 123.362 148.356 123.913 148.206 124.376C148.056 124.838 147.913 125.272 147.776 125.678L147.162 127.423ZM156.773 131.389C156.108 131.389 155.524 131.235 155.022 130.927C154.524 130.618 154.136 130.191 153.858 129.644C153.58 129.093 153.442 128.463 153.442 127.754C153.442 127.035 153.58 126.401 153.858 125.85C154.14 125.299 154.53 124.869 155.028 124.561C155.526 124.248 156.108 124.091 156.773 124.091C157.329 124.091 157.824 124.201 158.261 124.422C158.701 124.638 159.058 124.937 159.332 125.321C159.605 125.704 159.77 126.143 159.827 126.636H158.439C158.369 126.244 158.192 125.922 157.91 125.671C157.628 125.42 157.252 125.294 156.78 125.294C156.176 125.294 155.705 125.517 155.365 125.962C155.026 126.407 154.856 127.004 154.856 127.754C154.856 128.494 155.026 129.084 155.365 129.525C155.705 129.966 156.176 130.186 156.78 130.186C157.26 130.186 157.631 130.065 157.891 129.823C158.151 129.576 158.327 129.248 158.419 128.838H159.827C159.775 129.322 159.612 129.759 159.338 130.147C159.065 130.53 158.708 130.834 158.267 131.059C157.827 131.279 157.329 131.389 156.773 131.389ZM164.382 124.25V125.4H162.968V129.386C162.968 129.646 163.02 129.827 163.126 129.928C163.232 130.03 163.424 130.08 163.701 130.08H164.382V131.231H163.503C162.212 131.231 161.566 130.675 161.566 129.565V125.4H160.337V124.25H161.566V122.346H162.968V124.25H164.382ZM165.486 131.231V124.25H166.881V131.231H165.486ZM166.18 123.047C165.933 123.047 165.724 122.965 165.552 122.802C165.385 122.635 165.301 122.432 165.301 122.194C165.301 121.952 165.385 121.749 165.552 121.586C165.724 121.418 165.933 121.335 166.18 121.335C166.427 121.335 166.636 121.418 166.808 121.586C166.98 121.749 167.066 121.952 167.066 122.194C167.066 122.432 166.98 122.635 166.808 122.802C166.636 122.965 166.427 123.047 166.18 123.047ZM171.462 131.389C170.797 131.389 170.213 131.235 169.71 130.927C169.208 130.618 168.816 130.191 168.534 129.644C168.256 129.098 168.117 128.467 168.117 127.754C168.117 127.031 168.256 126.396 168.534 125.85C168.816 125.299 169.208 124.869 169.71 124.561C170.213 124.248 170.797 124.091 171.462 124.091C172.128 124.091 172.709 124.248 173.207 124.561C173.71 124.869 174.1 125.299 174.377 125.85C174.659 126.396 174.8 127.031 174.8 127.754C174.8 128.467 174.659 129.098 174.377 129.644C174.1 130.191 173.71 130.618 173.207 130.927C172.709 131.235 172.128 131.389 171.462 131.389ZM171.462 130.186C172.061 130.186 172.533 129.966 172.877 129.525C173.221 129.084 173.392 128.494 173.392 127.754C173.392 127.004 173.218 126.407 172.87 125.962C172.526 125.517 172.057 125.294 171.462 125.294C170.867 125.294 170.396 125.517 170.047 125.962C169.704 126.403 169.532 127 169.532 127.754C169.532 128.498 169.704 129.091 170.047 129.532C170.391 129.968 170.863 130.186 171.462 130.186ZM177.431 127.211V131.231H176.037V124.25H177.405V125.301C177.881 124.508 178.584 124.111 179.514 124.111C179.994 124.111 180.424 124.217 180.803 124.428C181.186 124.636 181.488 124.944 181.708 125.354C181.929 125.764 182.039 126.273 182.039 126.881V131.231H180.644V127.053C180.644 126.493 180.51 126.072 180.241 125.79C179.972 125.504 179.598 125.361 179.117 125.361C178.641 125.361 178.24 125.508 177.914 125.803C177.592 126.094 177.431 126.564 177.431 127.211Z" fill="#191919"/>
<path d="M292.231 132.577C295.736 132.577 298.577 129.736 298.577 126.231C298.577 122.726 295.736 119.885 292.231 119.885C288.726 119.885 285.885 122.726 285.885 126.231C285.885 129.736 288.726 132.577 292.231 132.577Z" stroke="#1D1D1D" stroke-opacity="0.6" stroke-width="0.951923" stroke-linecap="round" stroke-linejoin="round"/>
<path d="M292.231 128.769V125.913" stroke="#1D1D1D" stroke-opacity="0.6" stroke-width="0.951923" stroke-linecap="round" stroke-linejoin="round"/>
<path d="M292.231 123.699V123.693" stroke="#1D1D1D" stroke-opacity="0.6" stroke-width="1.14231" stroke-linecap="round" stroke-linejoin="round"/>
<path d="M144.402 142.637V141.843H150.103V142.637H147.704V149.231H146.811V142.637H144.402ZM151.948 149.35C151.465 149.35 151.04 149.234 150.673 149.003C150.31 148.768 150.026 148.446 149.821 148.036C149.619 147.626 149.518 147.155 149.518 146.623C149.518 146.087 149.619 145.613 149.821 145.2C150.026 144.787 150.31 144.463 150.673 144.228C151.04 143.993 151.465 143.876 151.948 143.876C152.434 143.876 152.858 143.993 153.222 144.228C153.585 144.463 153.868 144.787 154.07 145.2C154.275 145.613 154.377 146.087 154.377 146.623C154.377 147.155 154.275 147.626 154.07 148.036C153.868 148.446 153.585 148.768 153.222 149.003C152.858 149.234 152.434 149.35 151.948 149.35ZM151.948 148.586C152.443 148.586 152.83 148.408 153.108 148.051C153.385 147.69 153.524 147.214 153.524 146.623C153.524 146.025 153.384 145.545 153.103 145.185C152.825 144.821 152.44 144.64 151.948 144.64C151.455 144.64 151.068 144.82 150.788 145.18C150.51 145.54 150.371 146.021 150.371 146.623C150.371 147.218 150.51 147.694 150.788 148.051C151.065 148.408 151.452 148.586 151.948 148.586ZM159.9 149.33C159.447 149.33 159.049 149.216 158.705 148.988C158.365 148.756 158.1 148.437 157.912 148.031C157.724 147.621 157.629 147.148 157.629 146.613C157.629 146.074 157.724 145.602 157.912 145.195C158.1 144.785 158.365 144.466 158.705 144.238C159.049 144.01 159.447 143.896 159.9 143.896C160.241 143.896 160.556 143.969 160.847 144.114C161.138 144.256 161.368 144.474 161.536 144.769H161.546V141.843H162.389V149.231H161.566V148.437H161.556C161.368 148.738 161.13 148.963 160.842 149.112C160.555 149.257 160.241 149.33 159.9 149.33ZM160.029 148.571C160.515 148.571 160.9 148.393 161.184 148.036C161.472 147.679 161.616 147.205 161.616 146.613C161.616 146.021 161.472 145.547 161.184 145.19C160.9 144.83 160.515 144.65 160.029 144.65C159.576 144.65 159.204 144.816 158.914 145.15C158.626 145.484 158.482 145.972 158.482 146.613C158.482 147.254 158.626 147.742 158.914 148.076C159.204 148.406 159.576 148.571 160.029 148.571ZM165.8 149.35C165.318 149.35 164.893 149.234 164.526 149.003C164.162 148.768 163.878 148.446 163.673 148.036C163.472 147.626 163.371 147.155 163.371 146.623C163.371 146.087 163.472 145.613 163.673 145.2C163.878 144.787 164.162 144.463 164.526 144.228C164.893 143.993 165.318 143.876 165.8 143.876C166.286 143.876 166.711 143.993 167.074 144.228C167.438 144.463 167.721 144.787 167.922 145.2C168.127 145.613 168.23 146.087 168.23 146.623C168.23 147.155 168.127 147.626 167.922 148.036C167.721 148.446 167.438 148.768 167.074 149.003C166.711 149.234 166.286 149.35 165.8 149.35ZM165.8 148.586C166.296 148.586 166.683 148.408 166.96 148.051C167.238 147.69 167.377 147.214 167.377 146.623C167.377 146.025 167.236 145.545 166.955 145.185C166.678 144.821 166.293 144.64 165.8 144.64C165.308 144.64 164.921 144.82 164.64 145.18C164.362 145.54 164.224 146.021 164.224 146.623C164.224 147.218 164.362 147.694 164.64 148.051C164.918 148.408 165.304 148.586 165.8 148.586ZM172.593 141.843V149.231H171.75V141.843H172.593ZM173.842 149.231V143.995H174.685V149.231H173.842ZM174.263 142.974C174.105 142.974 173.969 142.918 173.857 142.805C173.744 142.693 173.688 142.557 173.688 142.399C173.688 142.24 173.744 142.105 173.857 141.992C173.969 141.88 174.105 141.824 174.263 141.824C174.422 141.824 174.558 141.88 174.67 141.992C174.782 142.105 174.838 142.24 174.838 142.399C174.838 142.557 174.782 142.693 174.67 142.805C174.558 142.918 174.422 142.974 174.263 142.974ZM177.759 149.35C177.385 149.35 177.046 149.289 176.742 149.166C176.438 149.044 176.192 148.859 176.004 148.611C175.815 148.36 175.709 148.044 175.686 147.664H176.519C176.579 148.305 176.985 148.626 177.739 148.626C178.102 148.626 178.388 148.55 178.597 148.398C178.808 148.246 178.914 148.054 178.914 147.823C178.914 147.624 178.841 147.466 178.696 147.347C178.55 147.228 178.36 147.142 178.126 147.089L177.283 146.891C176.298 146.659 175.805 146.163 175.805 145.403C175.805 145.106 175.885 144.843 176.043 144.615C176.205 144.384 176.428 144.203 176.713 144.074C177 143.942 177.331 143.876 177.704 143.876C178.068 143.876 178.393 143.946 178.681 144.084C178.972 144.22 179.201 144.413 179.37 144.664C179.542 144.916 179.633 145.215 179.643 145.562H178.82C178.816 145.284 178.714 145.054 178.512 144.873C178.311 144.691 178.041 144.6 177.704 144.6C177.384 144.6 177.127 144.678 176.936 144.833C176.744 144.988 176.648 145.178 176.648 145.403C176.648 145.602 176.721 145.762 176.866 145.884C177.012 146.003 177.21 146.092 177.461 146.152L178.304 146.35C178.806 146.469 179.175 146.648 179.41 146.886C179.644 147.12 179.762 147.426 179.762 147.803C179.762 148.127 179.674 148.404 179.499 148.636C179.324 148.867 179.084 149.044 178.78 149.166C178.479 149.289 178.139 149.35 177.759 149.35ZM183.138 143.995V144.719H182.077V147.961C182.077 148.163 182.118 148.305 182.201 148.388C182.287 148.467 182.437 148.507 182.652 148.507H183.138V149.231H182.573C181.68 149.231 181.234 148.837 181.234 148.051V144.719H180.302V143.995H181.234V142.567H182.077V143.995H183.138ZM183.669 150.624L184.105 148.199H185.007L184.283 150.624H183.669ZM188.785 149.231V143.995H189.608V144.843C189.773 144.536 189.993 144.301 190.268 144.139C190.542 143.977 190.839 143.896 191.16 143.896C191.517 143.896 191.829 143.987 192.097 144.169C192.365 144.35 192.553 144.574 192.662 144.838C192.804 144.57 193.018 144.347 193.302 144.169C193.586 143.987 193.923 143.896 194.313 143.896C194.634 143.896 194.925 143.965 195.186 144.104C195.45 144.243 195.66 144.453 195.815 144.734C195.974 145.015 196.053 145.37 196.053 145.8V149.231H195.211V145.8C195.211 145.393 195.097 145.104 194.869 144.932C194.64 144.757 194.376 144.669 194.075 144.669C193.692 144.669 193.389 144.787 193.168 145.021C192.95 145.253 192.841 145.545 192.841 145.899V149.231H191.998V145.711C191.998 145.397 191.892 145.145 191.681 144.957C191.472 144.765 191.21 144.669 190.892 144.669C190.674 144.669 190.468 144.721 190.273 144.823C190.081 144.926 189.925 145.079 189.806 145.284C189.687 145.486 189.628 145.737 189.628 146.038V149.231H188.785ZM199.465 149.35C198.952 149.35 198.514 149.232 198.151 148.998C197.79 148.763 197.514 148.441 197.323 148.031C197.131 147.618 197.035 147.148 197.035 146.623C197.035 146.091 197.136 145.618 197.338 145.205C197.539 144.792 197.818 144.468 198.175 144.233C198.532 143.995 198.942 143.876 199.405 143.876C199.891 143.876 200.312 143.992 200.669 144.223C201.026 144.455 201.301 144.777 201.492 145.19C201.687 145.603 201.785 146.081 201.785 146.623V146.856H197.868C197.888 147.368 198.035 147.785 198.309 148.105C198.584 148.426 198.969 148.586 199.465 148.586C199.838 148.586 200.142 148.5 200.377 148.328C200.615 148.156 200.773 147.935 200.853 147.664H201.696C201.629 147.998 201.492 148.292 201.284 148.547C201.076 148.798 200.815 148.994 200.501 149.137C200.19 149.279 199.845 149.35 199.465 149.35ZM197.878 146.132H200.942C200.896 145.673 200.735 145.307 200.461 145.036C200.187 144.765 199.835 144.63 199.405 144.63C198.975 144.63 198.625 144.765 198.354 145.036C198.083 145.307 197.924 145.673 197.878 146.132ZM204.908 149.35C204.396 149.35 203.958 149.232 203.594 148.998C203.234 148.763 202.958 148.441 202.766 148.031C202.575 147.618 202.479 147.148 202.479 146.623C202.479 146.091 202.58 145.618 202.781 145.205C202.983 144.792 203.262 144.468 203.619 144.233C203.976 143.995 204.386 143.876 204.849 143.876C205.335 143.876 205.756 143.992 206.113 144.223C206.47 144.455 206.744 144.777 206.936 145.19C207.131 145.603 207.229 146.081 207.229 146.623V146.856H203.312C203.332 147.368 203.479 147.785 203.753 148.105C204.027 148.426 204.413 148.586 204.908 148.586C205.282 148.586 205.586 148.5 205.821 148.328C206.059 148.156 206.217 147.935 206.297 147.664H207.139C207.073 147.998 206.936 148.292 206.728 148.547C206.52 148.798 206.259 148.994 205.945 149.137C205.634 149.279 205.288 149.35 204.908 149.35ZM203.322 146.132H206.386C206.34 145.673 206.179 145.307 205.905 145.036C205.631 144.765 205.279 144.63 204.849 144.63C204.419 144.63 204.069 144.765 203.798 145.036C203.527 145.307 203.368 145.673 203.322 146.132ZM210.476 143.995V144.719H209.415V147.961C209.415 148.163 209.456 148.305 209.539 148.388C209.625 148.467 209.775 148.507 209.99 148.507H210.476V149.231H209.911C209.018 149.231 208.572 148.837 208.572 148.051V144.719H207.64V143.995H208.572V142.567H209.415V143.995H210.476ZM211.354 149.231V143.995H212.196V149.231H211.354ZM211.775 142.974C211.616 142.974 211.481 142.918 211.369 142.805C211.256 142.693 211.2 142.557 211.2 142.399C211.2 142.24 211.256 142.105 211.369 141.992C211.481 141.88 211.616 141.824 211.775 141.824C211.934 141.824 212.069 141.88 212.182 141.992C212.294 142.105 212.35 142.24 212.35 142.399C212.35 142.557 212.294 142.693 212.182 142.805C212.069 142.918 211.934 142.974 211.775 142.974ZM214.289 146.167V149.231H213.446V143.995H214.269V144.764C214.451 144.466 214.672 144.248 214.933 144.109C215.198 143.967 215.495 143.896 215.826 143.896C216.179 143.896 216.502 143.974 216.792 144.129C217.083 144.281 217.315 144.511 217.487 144.818C217.662 145.126 217.749 145.512 217.749 145.978V149.231H216.907V146.038C216.907 145.585 216.797 145.245 216.579 145.016C216.364 144.785 216.06 144.669 215.667 144.669C215.287 144.669 214.961 144.787 214.69 145.021C214.423 145.256 214.289 145.638 214.289 146.167ZM221.19 151.373C220.602 151.373 220.104 151.237 219.698 150.966C219.291 150.695 219.055 150.302 218.989 149.786H219.852C219.928 150.067 220.085 150.277 220.323 150.416C220.564 150.558 220.853 150.629 221.19 150.629C221.646 150.629 222.005 150.507 222.266 150.262C222.527 150.021 222.658 149.677 222.658 149.231V148.437H222.653C222.461 148.742 222.223 148.966 221.939 149.112C221.658 149.257 221.346 149.33 221.002 149.33C220.549 149.33 220.151 149.216 219.807 148.988C219.466 148.756 219.202 148.437 219.014 148.031C218.825 147.621 218.731 147.148 218.731 146.613C218.731 146.074 218.825 145.602 219.014 145.195C219.202 144.785 219.466 144.466 219.807 144.238C220.151 144.01 220.549 143.896 221.002 143.896C221.342 143.896 221.658 143.969 221.949 144.114C222.243 144.256 222.481 144.489 222.663 144.813H222.668V143.995H223.491V149.231C223.491 149.746 223.383 150.161 223.168 150.475C222.957 150.789 222.676 151.017 222.326 151.159C221.975 151.301 221.597 151.373 221.19 151.373ZM221.131 148.571C221.617 148.571 222.002 148.393 222.286 148.036C222.573 147.679 222.717 147.205 222.717 146.613C222.717 146.021 222.573 145.547 222.286 145.19C222.002 144.83 221.617 144.65 221.131 144.65C220.678 144.65 220.306 144.816 220.015 145.15C219.728 145.484 219.584 145.972 219.584 146.613C219.584 147.254 219.728 147.742 220.015 148.076C220.306 148.406 220.678 148.571 221.131 148.571Z" fill="#727272"/>
</g>
<g filter="url(#filter1_d_69_635)">
<path d="M70 80C70 74.3995 70 71.5992 71.0899 69.4601C72.0487 67.5785 73.5785 66.0487 75.4601 65.0899C77.5992 64 80.3995 64 86 64H314C319.601 64 322.401 64 324.54 65.0899C326.422 66.0487 327.951 67.5785 328.91 69.4601C330 71.5992 330 74.3995 330 80V114C330 119.601 330 122.401 328.91 124.54C327.951 126.422 326.422 127.951 324.54 128.91C322.401 130 319.601 130 314 130H86C80.3995 130 77.5992 130 75.4601 128.91C73.5785 127.951 72.0487 126.422 71.0899 124.54C70 122.401 70 119.601 70 114V80Z" fill="white"/>
<rect x="82" y="76" width="42" height="42" rx="7" fill="#5CD6D8"/>
<path d="M93.8572 99.6666C92.8898 98.0776 92.3334 96.2157 92.3334 94.2251C92.3334 88.3938 97.109 83.6666 103 83.6666C108.891 83.6666 113.667 88.3938 113.667 94.2251C113.667 96.2157 113.11 98.0776 112.143 99.6666" stroke="white" stroke-width="2" stroke-linecap="round"/>
<path d="M96.8438 103.798C96.7213 103.429 96.6601 103.244 96.6672 103.095C96.6823 102.779 96.8815 102.502 97.1754 102.387C97.3143 102.333 97.508 102.333 97.8954 102.333H108.104C108.492 102.333 108.686 102.333 108.824 102.387C109.118 102.502 109.318 102.779 109.333 103.095C109.34 103.244 109.279 103.429 109.156 103.798C108.93 104.479 108.816 104.82 108.642 105.096C108.276 105.674 107.703 106.089 107.041 106.254C106.725 106.333 106.367 106.333 105.651 106.333H100.349C99.6332 106.333 99.2753 106.333 98.9592 106.254C98.2971 106.089 97.7237 105.674 97.358 105.096C97.1834 104.82 97.0702 104.479 96.8438 103.798Z" stroke="white" stroke-width="2"/>
<path d="M107 106.333L106.828 107.196C106.639 108.138 106.545 108.61 106.333 108.982C106.007 109.558 105.478 109.992 104.849 110.199C104.442 110.333 103.961 110.333 103 110.333C102.039 110.333 101.558 110.333 101.151 110.199C100.522 109.992 99.9931 109.558 99.6665 108.982C99.4553 108.61 99.361 108.138 99.1724 107.196L99 106.333" stroke="white" stroke-width="2"/>
<path d="M103 102.333V95.6666" stroke="white" stroke-width="2" stroke-linecap="round" stroke-linejoin="round"/>
<path d="M136.797 79.3594V91H135.062V79.3594H136.797ZM141.961 91.1641C141.242 91.1641 140.615 90.9844 140.078 90.625C139.542 90.2604 139.125 89.7578 138.828 89.1172C138.531 88.4714 138.383 87.724 138.383 86.875C138.383 86.026 138.531 85.2812 138.828 84.6406C139.13 83.9948 139.549 83.4922 140.086 83.1328C140.622 82.7682 141.245 82.5859 141.953 82.5859C142.49 82.5859 142.979 82.6979 143.422 82.9219C143.865 83.1458 144.219 83.487 144.484 83.9453H144.5V79.3594H146.148V91H144.531V89.7422H144.516C144.24 90.2214 143.878 90.5781 143.43 90.8125C142.987 91.0469 142.497 91.1641 141.961 91.1641ZM142.297 89.7422C143 89.7422 143.56 89.4818 143.977 88.9609C144.398 88.4349 144.609 87.7396 144.609 86.875C144.609 86.0052 144.398 85.3099 143.977 84.7891C143.56 84.263 143 84 142.297 84C141.63 84 141.089 84.2474 140.672 84.7422C140.26 85.2318 140.055 85.9427 140.055 86.875C140.055 87.8073 140.26 88.5182 140.672 89.0078C141.089 89.4974 141.63 89.7422 142.297 89.7422ZM151.531 91.1875C150.714 91.1875 150.01 91.0026 149.422 90.6328C148.839 90.263 148.388 89.7552 148.07 89.1094C147.758 88.4583 147.602 87.7188 147.602 86.8906C147.602 86.0521 147.766 85.3073 148.094 84.6562C148.422 84.0052 148.875 83.4948 149.453 83.125C150.031 82.75 150.695 82.5625 151.445 82.5625C152.227 82.5625 152.904 82.7448 153.477 83.1094C154.055 83.474 154.503 83.9818 154.82 84.6328C155.138 85.2786 155.297 86.026 155.297 86.875V87.3203H149.227C149.258 88.0651 149.471 88.6667 149.867 89.125C150.268 89.5833 150.831 89.8125 151.555 89.8125C152.096 89.8125 152.542 89.6901 152.891 89.4453C153.24 89.2005 153.471 88.8828 153.586 88.4922H155.172C155.073 89.0234 154.852 89.4922 154.508 89.8984C154.169 90.3047 153.742 90.6224 153.227 90.8516C152.716 91.0755 152.151 91.1875 151.531 91.1875ZM149.242 86.0703H153.688C153.62 85.4141 153.388 84.8958 152.992 84.5156C152.596 84.1302 152.086 83.9375 151.461 83.9375C150.836 83.9375 150.326 84.1302 149.93 84.5156C149.539 84.8958 149.31 85.4141 149.242 86.0703ZM159.336 91.1328C158.513 91.1328 157.831 90.9245 157.289 90.5078C156.747 90.0859 156.477 89.4635 156.477 88.6406C156.477 88.0156 156.63 87.5365 156.938 87.2031C157.25 86.8646 157.654 86.6224 158.148 86.4766C158.648 86.3307 159.177 86.224 159.734 86.1562C160.25 86.0938 160.659 86.0417 160.961 86C161.263 85.9583 161.477 85.8958 161.602 85.8125C161.732 85.7292 161.797 85.5859 161.797 85.3828V85.3125C161.797 84.9115 161.651 84.5833 161.359 84.3281C161.068 84.0677 160.659 83.9375 160.133 83.9375C159.607 83.9375 159.177 84.0651 158.844 84.3203C158.51 84.5703 158.328 84.8854 158.297 85.2656H156.68C156.716 84.4792 157.047 83.8359 157.672 83.3359C158.297 82.8359 159.125 82.5859 160.156 82.5859C161.172 82.5859 161.971 82.8359 162.555 83.3359C163.138 83.8359 163.43 84.5052 163.43 85.3438V91H161.805V89.8281H161.773C161.602 90.1615 161.328 90.4635 160.953 90.7344C160.583 91 160.044 91.1328 159.336 91.1328ZM159.672 89.8047C160.401 89.8047 160.938 89.6172 161.281 89.2422C161.63 88.862 161.805 88.4193 161.805 87.9141V86.9453C161.695 87.0339 161.448 87.1146 161.062 87.1875C160.677 87.2552 160.266 87.3203 159.828 87.3828C159.375 87.4505 158.977 87.5781 158.633 87.7656C158.289 87.9531 158.117 88.2552 158.117 88.6719C158.117 89.026 158.255 89.3047 158.531 89.5078C158.812 89.7057 159.193 89.8047 159.672 89.8047ZM169.266 82.75V84.1094H167.594V88.8203C167.594 89.1276 167.656 89.3411 167.781 89.4609C167.906 89.5807 168.133 89.6406 168.461 89.6406H169.266V91H168.227C166.701 91 165.938 90.3438 165.938 89.0312V84.1094H164.484V82.75H165.938V80.5H167.594V82.75H169.266ZM170.57 91V82.75H172.219V91H170.57ZM171.391 81.3281C171.099 81.3281 170.852 81.2318 170.648 81.0391C170.451 80.8411 170.352 80.6016 170.352 80.3203C170.352 80.0339 170.451 79.7943 170.648 79.6016C170.852 79.4036 171.099 79.3047 171.391 79.3047C171.682 79.3047 171.93 79.4036 172.133 79.6016C172.336 79.7943 172.438 80.0339 172.438 80.3203C172.438 80.6016 172.336 80.8411 172.133 81.0391C171.93 81.2318 171.682 81.3281 171.391 81.3281ZM177.633 91.1875C176.846 91.1875 176.156 91.0052 175.562 90.6406C174.969 90.276 174.505 89.7708 174.172 89.125C173.844 88.4792 173.68 87.7344 173.68 86.8906C173.68 86.0365 173.844 85.2865 174.172 84.6406C174.505 83.9896 174.969 83.4818 175.562 83.1172C176.156 82.7474 176.846 82.5625 177.633 82.5625C178.419 82.5625 179.107 82.7474 179.695 83.1172C180.289 83.4818 180.75 83.9896 181.078 84.6406C181.411 85.2865 181.578 86.0365 181.578 86.8906C181.578 87.7344 181.411 88.4792 181.078 89.125C180.75 89.7708 180.289 90.276 179.695 90.6406C179.107 91.0052 178.419 91.1875 177.633 91.1875ZM177.633 89.7656C178.341 89.7656 178.898 89.5052 179.305 88.9844C179.711 88.4635 179.914 87.7656 179.914 86.8906C179.914 86.0052 179.708 85.2995 179.297 84.7734C178.891 84.2474 178.336 83.9844 177.633 83.9844C176.93 83.9844 176.372 84.2474 175.961 84.7734C175.555 85.2943 175.352 86 175.352 86.8906C175.352 87.7708 175.555 88.4714 175.961 88.9922C176.367 89.5078 176.924 89.7656 177.633 89.7656ZM184.688 86.25V91H183.039V82.75H184.656V83.9922C185.219 83.0547 186.049 82.5859 187.148 82.5859C187.716 82.5859 188.224 82.7109 188.672 82.9609C189.125 83.2057 189.482 83.5703 189.742 84.0547C190.003 84.5391 190.133 85.1406 190.133 85.8594V91H188.484V86.0625C188.484 85.401 188.326 84.9036 188.008 84.5703C187.69 84.2318 187.247 84.0625 186.68 84.0625C186.117 84.0625 185.643 84.237 185.258 84.5859C184.878 84.9297 184.688 85.4844 184.688 86.25Z" fill="#191919"/>
<path d="M309 92.5C313.142 92.5 316.5 89.1421 316.5 85C316.5 80.8579 313.142 77.5 309 77.5C304.858 77.5 301.5 80.8579 301.5 85C301.5 89.1421 304.858 92.5 309 92.5Z" stroke="#1D1D1D" stroke-opacity="0.6" stroke-width="1.125" stroke-linecap="round" stroke-linejoin="round"/>
<path d="M309 88V84.625" stroke="#1D1D1D" stroke-opacity="0.6" stroke-width="1.125" stroke-linecap="round" stroke-linejoin="round"/>
<path d="M309 82.0087V82.0012" stroke="#1D1D1D" stroke-opacity="0.6" stroke-width="1.35" stroke-linecap="round" stroke-linejoin="round"/>
<path d="M138.564 113.141C137.76 113.141 137.055 112.949 136.449 112.566C135.844 112.18 135.371 111.648 135.031 110.973C134.695 110.293 134.527 109.516 134.527 108.641C134.527 107.758 134.695 106.979 135.031 106.303C135.367 105.623 135.838 105.092 136.443 104.709C137.053 104.322 137.76 104.129 138.564 104.129C139.174 104.129 139.73 104.25 140.234 104.492C140.738 104.73 141.158 105.072 141.494 105.518C141.834 105.959 142.057 106.484 142.162 107.094H141.084C140.943 106.457 140.646 105.969 140.193 105.629C139.744 105.285 139.201 105.113 138.564 105.113C137.951 105.113 137.422 105.264 136.977 105.564C136.531 105.861 136.188 106.275 135.945 106.807C135.703 107.334 135.582 107.945 135.582 108.641C135.582 109.332 135.703 109.941 135.945 110.469C136.188 110.996 136.531 111.41 136.977 111.711C137.422 112.008 137.951 112.156 138.564 112.156C139.193 112.156 139.734 111.986 140.188 111.646C140.641 111.307 140.941 110.82 141.09 110.188H142.162C142.057 110.793 141.836 111.316 141.5 111.758C141.164 112.199 140.742 112.541 140.234 112.783C139.73 113.021 139.174 113.141 138.564 113.141ZM145.965 113.141C145.395 113.141 144.893 113.004 144.459 112.73C144.029 112.453 143.693 112.072 143.451 111.588C143.213 111.104 143.094 110.547 143.094 109.918C143.094 109.285 143.213 108.725 143.451 108.236C143.693 107.748 144.029 107.365 144.459 107.088C144.893 106.811 145.395 106.672 145.965 106.672C146.539 106.672 147.041 106.811 147.471 107.088C147.9 107.365 148.234 107.748 148.473 108.236C148.715 108.725 148.836 109.285 148.836 109.918C148.836 110.547 148.715 111.104 148.473 111.588C148.234 112.072 147.9 112.453 147.471 112.73C147.041 113.004 146.539 113.141 145.965 113.141ZM145.965 112.238C146.551 112.238 147.008 112.027 147.336 111.605C147.664 111.18 147.828 110.617 147.828 109.918C147.828 109.211 147.662 108.645 147.33 108.219C147.002 107.789 146.547 107.574 145.965 107.574C145.383 107.574 144.926 107.787 144.594 108.213C144.266 108.639 144.102 109.207 144.102 109.918C144.102 110.621 144.266 111.184 144.594 111.605C144.922 112.027 145.379 112.238 145.965 112.238ZM150.992 109.379V113H149.996V106.812H150.969V107.721C151.184 107.369 151.445 107.111 151.754 106.947C152.066 106.779 152.418 106.695 152.809 106.695C153.227 106.695 153.607 106.787 153.951 106.971C154.295 107.15 154.568 107.422 154.771 107.785C154.979 108.148 155.082 108.605 155.082 109.156V113H154.086V109.227C154.086 108.691 153.957 108.289 153.699 108.02C153.445 107.746 153.086 107.609 152.621 107.609C152.172 107.609 151.787 107.748 151.467 108.025C151.15 108.303 150.992 108.754 150.992 109.379ZM159.113 113.141C158.543 113.141 158.041 113.004 157.607 112.73C157.178 112.453 156.842 112.072 156.6 111.588C156.361 111.104 156.242 110.547 156.242 109.918C156.242 109.285 156.361 108.725 156.6 108.236C156.842 107.748 157.178 107.365 157.607 107.088C158.041 106.811 158.543 106.672 159.113 106.672C159.582 106.672 160.002 106.766 160.373 106.953C160.744 107.137 161.047 107.391 161.281 107.715C161.52 108.039 161.666 108.41 161.721 108.828H160.713C160.639 108.465 160.467 108.166 160.197 107.932C159.932 107.693 159.57 107.574 159.113 107.574C158.531 107.574 158.074 107.787 157.742 108.213C157.414 108.639 157.25 109.207 157.25 109.918C157.25 110.621 157.414 111.184 157.742 111.605C158.07 112.027 158.527 112.238 159.113 112.238C159.578 112.238 159.934 112.125 160.18 111.898C160.426 111.668 160.598 111.363 160.695 110.984H161.721C161.666 111.391 161.52 111.758 161.281 112.086C161.047 112.41 160.742 112.668 160.367 112.859C159.996 113.047 159.578 113.141 159.113 113.141ZM165.395 113.141C164.789 113.141 164.271 113.002 163.842 112.725C163.416 112.447 163.09 112.066 162.863 111.582C162.637 111.094 162.523 110.539 162.523 109.918C162.523 109.289 162.643 108.73 162.881 108.242C163.119 107.754 163.449 107.371 163.871 107.094C164.293 106.812 164.777 106.672 165.324 106.672C165.898 106.672 166.396 106.809 166.818 107.082C167.24 107.355 167.564 107.736 167.791 108.225C168.021 108.713 168.137 109.277 168.137 109.918V110.193H163.508C163.531 110.799 163.705 111.291 164.029 111.67C164.354 112.049 164.809 112.238 165.395 112.238C165.836 112.238 166.195 112.137 166.473 111.934C166.754 111.73 166.941 111.469 167.035 111.148H168.031C167.953 111.543 167.791 111.891 167.545 112.191C167.299 112.488 166.99 112.721 166.619 112.889C166.252 113.057 165.844 113.141 165.395 113.141ZM163.52 109.338H167.141C167.086 108.795 166.896 108.363 166.572 108.043C166.248 107.723 165.832 107.562 165.324 107.562C164.816 107.562 164.402 107.723 164.082 108.043C163.762 108.363 163.574 108.795 163.52 109.338ZM169.273 115.449V106.812H170.246V107.727H170.258C170.457 107.379 170.732 107.121 171.084 106.953C171.436 106.781 171.812 106.695 172.215 106.695C172.754 106.695 173.225 106.83 173.627 107.1C174.029 107.369 174.342 107.746 174.564 108.23C174.787 108.711 174.898 109.27 174.898 109.906C174.898 110.539 174.787 111.098 174.564 111.582C174.342 112.062 174.029 112.439 173.627 112.713C173.225 112.982 172.754 113.117 172.215 113.117C171.812 113.117 171.445 113.031 171.113 112.859C170.781 112.684 170.504 112.418 170.281 112.062H170.27V115.449H169.273ZM172.062 112.221C172.598 112.221 173.035 112.025 173.375 111.635C173.719 111.24 173.891 110.664 173.891 109.906C173.891 109.148 173.719 108.572 173.375 108.178C173.035 107.783 172.598 107.586 172.062 107.586C171.488 107.586 171.031 107.799 170.691 108.225C170.355 108.646 170.188 109.207 170.188 109.906C170.188 110.605 170.355 111.166 170.691 111.588C171.031 112.01 171.488 112.221 172.062 112.221ZM178.76 106.812V107.668H177.506V111.5C177.506 111.738 177.555 111.906 177.652 112.004C177.754 112.098 177.932 112.145 178.186 112.145H178.76V113H178.092C177.037 113 176.51 112.535 176.51 111.605V107.668H175.408V106.812H176.51V105.125H177.506V106.812H178.76ZM179.797 113V106.812H180.793V113H179.797ZM180.295 105.605C180.107 105.605 179.947 105.539 179.814 105.406C179.682 105.273 179.615 105.113 179.615 104.926C179.615 104.738 179.682 104.578 179.814 104.445C179.947 104.312 180.107 104.246 180.295 104.246C180.482 104.246 180.643 104.312 180.775 104.445C180.908 104.578 180.975 104.738 180.975 104.926C180.975 105.113 180.908 105.273 180.775 105.406C180.643 105.539 180.482 105.605 180.295 105.605ZM183.266 109.379V113H182.27V106.812H183.242V107.721C183.457 107.369 183.719 107.111 184.027 106.947C184.34 106.779 184.691 106.695 185.082 106.695C185.5 106.695 185.881 106.787 186.225 106.971C186.568 107.15 186.842 107.422 187.045 107.785C187.252 108.148 187.355 108.605 187.355 109.156V113H186.359V109.227C186.359 108.691 186.23 108.289 185.973 108.02C185.719 107.746 185.359 107.609 184.895 107.609C184.445 107.609 184.061 107.748 183.74 108.025C183.424 108.303 183.266 108.754 183.266 109.379ZM191.422 115.531C190.727 115.531 190.139 115.371 189.658 115.051C189.178 114.73 188.898 114.266 188.82 113.656H189.84C189.93 113.988 190.115 114.236 190.396 114.4C190.682 114.568 191.023 114.652 191.422 114.652C191.961 114.652 192.385 114.508 192.693 114.219C193.002 113.934 193.156 113.527 193.156 113V112.062H193.15C192.924 112.422 192.643 112.688 192.307 112.859C191.975 113.031 191.605 113.117 191.199 113.117C190.664 113.117 190.193 112.982 189.787 112.713C189.385 112.439 189.072 112.062 188.85 111.582C188.627 111.098 188.516 110.539 188.516 109.906C188.516 109.27 188.627 108.711 188.85 108.23C189.072 107.746 189.385 107.369 189.787 107.1C190.193 106.83 190.664 106.695 191.199 106.695C191.602 106.695 191.975 106.781 192.318 106.953C192.666 107.121 192.947 107.396 193.162 107.779H193.168V106.812H194.141V113C194.141 113.609 194.014 114.1 193.76 114.471C193.51 114.842 193.178 115.111 192.764 115.279C192.35 115.447 191.902 115.531 191.422 115.531ZM191.352 112.221C191.926 112.221 192.381 112.01 192.717 111.588C193.057 111.166 193.227 110.605 193.227 109.906C193.227 109.207 193.057 108.646 192.717 108.225C192.381 107.799 191.926 107.586 191.352 107.586C190.816 107.586 190.377 107.783 190.033 108.178C189.693 108.572 189.523 109.148 189.523 109.906C189.523 110.664 189.693 111.24 190.033 111.635C190.377 112.025 190.816 112.221 191.352 112.221ZM195.207 114.646L195.723 111.781H196.789L195.934 114.646H195.207ZM201.383 113V104.27H204.512C205.422 104.27 206.143 104.508 206.674 104.984C207.209 105.457 207.477 106.102 207.477 106.918C207.477 107.461 207.352 107.932 207.102 108.33C206.855 108.725 206.506 109.031 206.053 109.25C205.604 109.465 205.074 109.572 204.465 109.572H202.438V113H201.383ZM202.438 108.635H204.477C205.082 108.635 205.559 108.482 205.906 108.178C206.258 107.869 206.434 107.449 206.434 106.918C206.434 106.387 206.258 105.969 205.906 105.664C205.559 105.359 205.082 105.207 204.477 105.207H202.438V108.635ZM209.598 104.27V113H208.602V104.27H209.598ZM212.961 113.094C212.348 113.094 211.834 112.936 211.42 112.619C211.01 112.303 210.805 111.836 210.805 111.219C210.805 110.863 210.873 110.574 211.01 110.352C211.15 110.129 211.336 109.955 211.566 109.83C211.801 109.701 212.064 109.604 212.357 109.537C212.654 109.471 212.957 109.418 213.266 109.379C213.66 109.324 213.971 109.283 214.197 109.256C214.424 109.229 214.584 109.184 214.678 109.121C214.775 109.059 214.824 108.949 214.824 108.793V108.734C214.824 108.398 214.703 108.121 214.461 107.902C214.223 107.684 213.887 107.574 213.453 107.574C213.023 107.574 212.67 107.68 212.393 107.891C212.119 108.098 211.971 108.355 211.947 108.664H210.934C210.953 108.285 211.07 107.949 211.285 107.656C211.5 107.359 211.793 107.125 212.164 106.953C212.535 106.781 212.965 106.695 213.453 106.695C214.176 106.695 214.748 106.883 215.17 107.258C215.596 107.629 215.809 108.121 215.809 108.734V113H214.824V112.121H214.801C214.727 112.27 214.617 112.42 214.473 112.572C214.328 112.721 214.133 112.846 213.887 112.947C213.645 113.045 213.336 113.094 212.961 113.094ZM213.102 112.203C213.508 112.203 213.838 112.131 214.092 111.986C214.346 111.838 214.531 111.646 214.648 111.412C214.766 111.178 214.824 110.926 214.824 110.656V109.883C214.75 109.953 214.553 110.018 214.232 110.076C213.912 110.131 213.574 110.184 213.219 110.234C212.98 110.266 212.754 110.32 212.539 110.398C212.328 110.473 212.156 110.58 212.023 110.721C211.891 110.857 211.824 111.043 211.824 111.277C211.824 111.566 211.938 111.793 212.164 111.957C212.395 112.121 212.707 112.203 213.102 112.203ZM218.281 109.379V113H217.285V106.812H218.258V107.721C218.473 107.369 218.734 107.111 219.043 106.947C219.355 106.779 219.707 106.695 220.098 106.695C220.516 106.695 220.896 106.787 221.24 106.971C221.584 107.15 221.857 107.422 222.061 107.785C222.268 108.148 222.371 108.605 222.371 109.156V113H221.375V109.227C221.375 108.691 221.246 108.289 220.988 108.02C220.734 107.746 220.375 107.609 219.91 107.609C219.461 107.609 219.076 107.748 218.756 108.025C218.439 108.303 218.281 108.754 218.281 109.379ZM224.844 109.379V113H223.848V106.812H224.82V107.721C225.035 107.369 225.297 107.111 225.605 106.947C225.918 106.779 226.27 106.695 226.66 106.695C227.078 106.695 227.459 106.787 227.803 106.971C228.146 107.15 228.42 107.422 228.623 107.785C228.83 108.148 228.934 108.605 228.934 109.156V113H227.938V109.227C227.938 108.691 227.809 108.289 227.551 108.02C227.297 107.746 226.938 107.609 226.473 107.609C226.023 107.609 225.639 107.748 225.318 108.025C225.002 108.303 224.844 108.754 224.844 109.379ZM230.41 113V106.812H231.406V113H230.41ZM230.908 105.605C230.721 105.605 230.561 105.539 230.428 105.406C230.295 105.273 230.229 105.113 230.229 104.926C230.229 104.738 230.295 104.578 230.428 104.445C230.561 104.312 230.721 104.246 230.908 104.246C231.096 104.246 231.256 104.312 231.389 104.445C231.521 104.578 231.588 104.738 231.588 104.926C231.588 105.113 231.521 105.273 231.389 105.406C231.256 105.539 231.096 105.605 230.908 105.605ZM233.879 109.379V113H232.883V106.812H233.855V107.721C234.07 107.369 234.332 107.111 234.641 106.947C234.953 106.779 235.305 106.695 235.695 106.695C236.113 106.695 236.494 106.787 236.838 106.971C237.182 107.15 237.455 107.422 237.658 107.785C237.865 108.148 237.969 108.605 237.969 109.156V113H236.973V109.227C236.973 108.691 236.844 108.289 236.586 108.02C236.332 107.746 235.973 107.609 235.508 107.609C235.059 107.609 234.674 107.748 234.354 108.025C234.037 108.303 233.879 108.754 233.879 109.379ZM242.035 115.531C241.34 115.531 240.752 115.371 240.271 115.051C239.791 114.73 239.512 114.266 239.434 113.656H240.453C240.543 113.988 240.729 114.236 241.01 114.4C241.295 114.568 241.637 114.652 242.035 114.652C242.574 114.652 242.998 114.508 243.307 114.219C243.615 113.934 243.77 113.527 243.77 113V112.062H243.764C243.537 112.422 243.256 112.688 242.92 112.859C242.588 113.031 242.219 113.117 241.812 113.117C241.277 113.117 240.807 112.982 240.4 112.713C239.998 112.439 239.686 112.062 239.463 111.582C239.24 111.098 239.129 110.539 239.129 109.906C239.129 109.27 239.24 108.711 239.463 108.23C239.686 107.746 239.998 107.369 240.4 107.1C240.807 106.83 241.277 106.695 241.812 106.695C242.215 106.695 242.588 106.781 242.932 106.953C243.279 107.121 243.561 107.396 243.775 107.779H243.781V106.812H244.754V113C244.754 113.609 244.627 114.1 244.373 114.471C244.123 114.842 243.791 115.111 243.377 115.279C242.963 115.447 242.516 115.531 242.035 115.531ZM241.965 112.221C242.539 112.221 242.994 112.01 243.33 111.588C243.67 111.166 243.84 110.605 243.84 109.906C243.84 109.207 243.67 108.646 243.33 108.225C242.994 107.799 242.539 107.586 241.965 107.586C241.43 107.586 240.99 107.783 240.646 108.178C240.307 108.572 240.137 109.148 240.137 109.906C240.137 110.664 240.307 111.24 240.646 111.635C240.99 112.025 241.43 112.221 241.965 112.221Z" fill="#727272"/>
</g>
<g filter="url(#filter2_dddddd_69_635)">
<path d="M325.075 215.68C326.619 210.297 327.391 207.605 329.028 205.849C330.468 204.305 332.361 203.256 334.434 202.853C336.79 202.395 339.482 203.167 344.866 204.71V204.71C350.249 206.254 352.941 207.026 354.697 208.663C356.241 210.104 357.29 211.996 357.693 214.069C358.151 216.426 357.379 219.117 355.836 224.501V224.501C354.292 229.884 353.52 232.576 351.883 234.332C350.442 235.877 348.55 236.925 346.477 237.328C344.12 237.786 341.429 237.015 336.045 235.471V235.471C330.662 233.927 327.97 233.155 326.214 231.518C324.669 230.078 323.621 228.186 323.218 226.113C322.76 223.756 323.531 221.064 325.075 215.68V215.68Z" fill="white"/>
</g>
<g clip-path="url(#clip1_69_635)">
<path d="M340.397 219.81C340.879 218.129 342.633 217.157 344.315 217.639C345.996 218.121 346.968 219.875 346.486 221.556C346.004 223.238 344.25 224.21 342.568 223.728C340.887 223.246 339.915 221.492 340.397 219.81Z" fill="#1ABCFE"/>
<path d="M332.561 224.154C333.043 222.472 334.797 221.5 336.479 221.982L339.524 222.855L338.651 225.9C338.169 227.581 336.414 228.554 334.733 228.072C333.051 227.589 332.079 225.835 332.561 224.154Z" fill="#0ACF83"/>
<path d="M343.016 210.676L341.27 216.766L344.315 217.639C345.996 218.121 347.75 217.149 348.232 215.467C348.715 213.785 347.742 212.031 346.061 211.549L343.016 210.676Z" fill="#FF7262"/>
<path d="M336.053 211.975C335.571 213.656 336.544 215.41 338.225 215.893L341.27 216.766L343.016 210.676L339.971 209.803C338.29 209.321 336.536 210.293 336.053 211.975Z" fill="#F24E1E"/>
<path d="M334.307 218.064C333.825 219.746 334.797 221.5 336.479 221.982L339.524 222.855L341.27 216.766L338.225 215.893C336.544 215.41 334.79 216.383 334.307 218.064Z" fill="#A259FF"/>
</g>
</g>
<defs>
<filter id="filter0_d_69_635" x="68" y="87.7692" width="264" height="99.8462" filterUnits="userSpaceOnUse" color-interpolation-filters="sRGB">
<feFlood flood-opacity="0" result="BackgroundImageFix"/>
<feColorMatrix in="SourceAlpha" type="matrix" values="0 0 0 0 0 0 0 0 0 0 0 0 0 0 0 0 0 0 127 0" result="hardAlpha"/>
<feOffset dy="1.69231"/>
<feGaussianBlur stdDeviation="11"/>
<feComposite in2="hardAlpha" operator="out"/>
<feColorMatrix type="matrix" values="0 0 0 0 0.594952 0 0 0 0 0.594952 0 0 0 0 0.594952 0 0 0 0.08 0"/>
<feBlend mode="normal" in2="BackgroundImageFix" result="effect1_dropShadow_69_635"/>
<feBlend mode="normal" in="SourceGraphic" in2="effect1_dropShadow_69_635" result="shape"/>
</filter>
<filter id="filter1_d_69_635" x="58" y="63" width="284" height="90" filterUnits="userSpaceOnUse" color-interpolation-filters="sRGB">
<feFlood flood-opacity="0" result="BackgroundImageFix"/>
<feColorMatrix in="SourceAlpha" type="matrix" values="0 0 0 0 0 0 0 0 0 0 0 0 0 0 0 0 0 0 127 0" result="hardAlpha"/>
<feOffset dy="11"/>
<feGaussianBlur stdDeviation="6"/>
<feComposite in2="hardAlpha" operator="out"/>
<feColorMatrix type="matrix" values="0 0 0 0 0.594952 0 0 0 0 0.594952 0 0 0 0 0.594952 0 0 0 0.08 0"/>
<feBlend mode="normal" in2="BackgroundImageFix" result="effect1_dropShadow_69_635"/>
<feBlend mode="normal" in="SourceGraphic" in2="effect1_dropShadow_69_635" result="shape"/>
</filter>
<filter id="filter2_dddddd_69_635" x="294.665" y="190.3" width="91.5807" height="91.5808" filterUnits="userSpaceOnUse" color-interpolation-filters="sRGB">
<feFlood flood-opacity="0" result="BackgroundImageFix"/>
<feColorMatrix in="SourceAlpha" type="matrix" values="0 0 0 0 0 0 0 0 0 0 0 0 0 0 0 0 0 0 127 0" result="hardAlpha"/>
<feMorphology radius="2" operator="erode" in="SourceAlpha" result="effect1_dropShadow_69_635"/>
<feOffset dy="2.5"/>
<feGaussianBlur stdDeviation="0.375"/>
<feComposite in2="hardAlpha" operator="out"/>
<feColorMatrix type="matrix" values="0 0 0 0 0.596078 0 0 0 0 0.596078 0 0 0 0 0.596078 0 0 0 0.05 0"/>
<feBlend mode="normal" in2="BackgroundImageFix" result="effect1_dropShadow_69_635"/>
<feColorMatrix in="SourceAlpha" type="matrix" values="0 0 0 0 0 0 0 0 0 0 0 0 0 0 0 0 0 0 127 0" result="hardAlpha"/>
<feMorphology radius="2" operator="erode" in="SourceAlpha" result="effect2_dropShadow_69_635"/>
<feOffset dy="3"/>
<feGaussianBlur stdDeviation="1"/>
<feComposite in2="hardAlpha" operator="out"/>
<feColorMatrix type="matrix" values="0 0 0 0 0.596078 0 0 0 0 0.596078 0 0 0 0 0.596078 0 0 0 0.05 0"/>
<feBlend mode="normal" in2="effect1_dropShadow_69_635" result="effect2_dropShadow_69_635"/>
<feColorMatrix in="SourceAlpha" type="matrix" values="0 0 0 0 0 0 0 0 0 0 0 0 0 0 0 0 0 0 127 0" result="hardAlpha"/>
<feOffset dy="3"/>
<feGaussianBlur stdDeviation="3.25"/>
<feComposite in2="hardAlpha" operator="out"/>
<feColorMatrix type="matrix" values="0 0 0 0 0.596078 0 0 0 0 0.596078 0 0 0 0 0.596078 0 0 0 0.03 0"/>
<feBlend mode="normal" in2="effect2_dropShadow_69_635" result="effect3_dropShadow_69_635"/>
<feColorMatrix in="SourceAlpha" type="matrix" values="0 0 0 0 0 0 0 0 0 0 0 0 0 0 0 0 0 0 127 0" result="hardAlpha"/>
<feMorphology radius="8" operator="erode" in="SourceAlpha" result="effect4_dropShadow_69_635"/>
<feOffset dy="12"/>
<feGaussianBlur stdDeviation="6"/>
<feComposite in2="hardAlpha" operator="out"/>
<feColorMatrix type="matrix" values="0 0 0 0 0.596078 0 0 0 0 0.596078 0 0 0 0 0.596078 0 0 0 0.04 0"/>
<feBlend mode="normal" in2="effect3_dropShadow_69_635" result="effect4_dropShadow_69_635"/>
<feColorMatrix in="SourceAlpha" type="matrix" values="0 0 0 0 0 0 0 0 0 0 0 0 0 0 0 0 0 0 127 0" result="hardAlpha"/>
<feMorphology radius="1" operator="erode" in="SourceAlpha" result="effect5_dropShadow_69_635"/>
<feOffset dy="1.075"/>
<feGaussianBlur stdDeviation="0.125"/>
<feComposite in2="hardAlpha" operator="out"/>
<feColorMatrix type="matrix" values="0 0 0 0 0.596078 0 0 0 0 0.596078 0 0 0 0 0.596078 0 0 0 0.25 0"/>
<feBlend mode="normal" in2="effect4_dropShadow_69_635" result="effect5_dropShadow_69_635"/>
<feColorMatrix in="SourceAlpha" type="matrix" values="0 0 0 0 0 0 0 0 0 0 0 0 0 0 0 0 0 0 127 0" result="hardAlpha"/>
<feMorphology radius="6" operator="erode" in="SourceAlpha" result="effect6_dropShadow_69_635"/>
<feOffset dy="16"/>
<feGaussianBlur stdDeviation="16"/>
<feComposite in2="hardAlpha" operator="out"/>
<feColorMatrix type="matrix" values="0 0 0 0 0.596078 0 0 0 0 0.596078 0 0 0 0 0.596078 0 0 0 0.075 0"/>
<feBlend mode="multiply" in2="effect5_dropShadow_69_635" result="effect6_dropShadow_69_635"/>
<feBlend mode="normal" in="SourceGraphic" in2="effect6_dropShadow_69_635" result="shape"/>
</filter>
<radialGradient id="paint0_radial_69_635" cx="0" cy="0" r="1" gradientUnits="userSpaceOnUse" gradientTransform="translate(200 64.453) rotate(90) scale(296.547 451.159)">
<stop offset="0.408875" stop-color="white"/>
<stop offset="0.578583" stop-color="#C59FCA" stop-opacity="0.2"/>
<stop offset="0.810712" stop-color="white"/>
</radialGradient>
<clipPath id="clip0_69_635">
<rect width="400" height="400" rx="12" fill="white"/>
</clipPath>
<clipPath id="clip1_69_635">
<rect width="12.8" height="19.2" fill="white" transform="translate(336.891 208.818) rotate(16)"/>
</clipPath>
<pattern id="pattern0_69_635" patternUnits="userSpaceOnUse" patternTransform="matrix(8 0 0 8 199 283)" preserveAspectRatio="none" viewBox="0 0 400 400" width="1" height="1">
<g id="pattern0_69_635_inner">
<circle cx="50" cy="50" r="50" fill="#DDDAE5"/>
</g>
</pattern></defs>
</svg>
