<svg width="126" height="24" viewBox="0 0 126 24" fill="none" xmlns="http://www.w3.org/2000/svg">
<g clip-path="url(#clip0_6_5826)">
<path d="M44.1153 8.36157C40.8475 8.36157 38.8452 10.4748 38.8452 14.1889C38.8452 17.9031 40.8475 20.0003 44.1153 20.0003C47.3831 20.0003 49.3694 17.8871 49.3694 14.1889C49.3694 10.4908 47.4152 8.36157 44.1153 8.36157ZM44.1153 18.3033C42.0489 18.3033 41.216 16.6063 41.216 14.2049C41.232 11.7715 42.0489 10.0906 44.1153 10.0906C46.1817 10.0906 47.0147 11.7715 47.0147 14.1889C47.0147 16.6063 46.1817 18.3033 44.1153 18.3033Z" fill="black"/>
<path d="M74.0541 8.36157C72.4362 8.36157 71.4911 9.098 70.7863 10.0425C70.6902 10.1546 70.6101 10.2667 70.4499 10.2667C70.2897 10.2667 70.1616 10.1546 70.1616 9.93048V8.5857H68.0471V19.7922H70.2897V13.6126C70.2897 11.6114 71.363 10.1866 73.0449 10.1866C74.6308 10.1866 75.4157 11.0992 75.4157 13.0843V19.7922H77.6583V12.492C77.6583 9.91447 76.4889 8.36157 74.0541 8.36157Z" fill="black"/>
<path d="M86.036 8.36164C84.5303 8.36164 83.5531 9.03403 82.8964 9.88252C82.8003 9.99458 82.7202 10.1066 82.56 10.1066C82.3998 10.1066 82.2717 9.99458 82.2717 9.77045V3.75098H80.0291V19.7922H82.2717V13.6127C82.2717 11.6115 83.3449 10.1867 85.0269 10.1867C86.6127 10.1867 87.3976 11.0992 87.3976 13.0844V19.7922H89.6402V12.492C89.6402 9.91453 88.4708 8.36164 86.036 8.36164Z" fill="black"/>
<path d="M96.6404 8.36157C93.3726 8.36157 91.3702 10.4748 91.3702 14.1889C91.3702 17.9031 93.3726 20.0003 96.6404 20.0003C99.9081 20.0003 101.894 17.8871 101.894 14.1889C101.878 10.4748 99.9402 8.36157 96.6404 8.36157ZM96.6404 18.3033C94.574 18.3033 93.741 16.6063 93.741 14.2049C93.741 11.8036 94.574 10.1066 96.6404 10.1066C98.7068 10.1066 99.5397 11.7876 99.5397 14.2049C99.5237 16.5903 98.7068 18.3033 96.6404 18.3033Z" fill="black"/>
<path d="M108.398 8.36157C105.13 8.36157 103.128 10.4748 103.128 14.1889C103.128 17.9031 105.13 20.0003 108.398 20.0003C111.666 20.0003 113.652 17.8871 113.652 14.1889C113.652 10.4908 111.698 8.36157 108.398 8.36157ZM108.398 18.3033C106.332 18.3033 105.499 16.6063 105.499 14.2049C105.499 11.8036 106.332 10.1066 108.398 10.1066C110.464 10.1066 111.297 11.7876 111.297 14.2049C111.297 16.6223 110.464 18.3033 108.398 18.3033Z" fill="black"/>
<path d="M65.6123 8.58582H63.3697V19.7923H65.6123V8.58582Z" fill="black"/>
<path d="M65.6764 3.75098H63.2736V6.31246H65.6764V3.75098Z" fill="black"/>
<path d="M122.975 3.75098V9.48229C122.975 9.70641 122.847 9.81848 122.687 9.81848C122.574 9.81848 122.414 9.70641 122.35 9.64238C121.549 8.79389 120.684 8.36164 119.323 8.36164C116.904 8.36164 114.934 10.2187 114.934 14.189C114.934 18.1593 116.904 20.0004 119.323 20.0004C120.732 20.0004 121.613 19.456 122.462 18.6076C122.59 18.4795 122.687 18.3994 122.799 18.3994C122.959 18.3994 123.087 18.5115 123.087 18.7356V19.7922H125.218V3.75098H122.975ZM120.172 18.2874C118.105 18.3034 117.272 16.5904 117.272 14.189C117.272 11.7876 118.105 10.0906 120.172 10.0906C122.238 10.0906 123.071 11.7716 123.071 14.189C123.071 16.6064 122.27 18.2874 120.172 18.2874Z" fill="black"/>
<path d="M57.1225 8.36164C55.7609 8.36164 54.8959 8.79389 54.095 9.64238C54.0309 9.70641 53.8707 9.81848 53.7586 9.81848C53.5984 9.81848 53.4703 9.70641 53.4703 9.48229V3.75098H51.2277V19.7922H53.3421V18.7356C53.3421 18.5115 53.4703 18.3994 53.6305 18.3994C53.7426 18.3994 53.8387 18.4635 53.9668 18.6076C54.8158 19.456 55.6969 20.0004 57.1065 20.0004C59.5253 20.0004 61.5116 18.1593 61.5116 14.189C61.5116 10.2187 59.5413 8.36164 57.1225 8.36164ZM56.2575 18.3034C54.1751 18.3034 53.3581 16.6064 53.3581 14.205C53.3581 11.8036 54.1591 10.1066 56.2575 10.1066C58.3559 10.1066 59.1569 11.7876 59.1569 14.205C59.1569 16.5904 58.3239 18.3034 56.2575 18.3034Z" fill="black"/>
<path d="M35.3211 12.6521C35.1449 12.5881 35.0808 12.476 35.0808 12.3319C35.0808 12.1719 35.1449 12.1078 35.3531 11.9958C36.5706 11.4194 37.3074 10.2668 37.3074 8.69785C37.3074 5.94426 35.5774 4.2793 32.1014 4.2793H26.1104V19.7923H28.4812V13.3886H32.3096C34.1197 13.3886 34.7284 14.157 34.7765 15.4057L35.0007 19.7923H37.3395L37.0992 15.2456C37.0031 13.7408 36.4104 13.0524 35.3211 12.6521ZM31.9412 11.5475H28.4812V6.16839H31.9412C33.7353 6.16839 34.8405 7.0489 34.8405 8.85794C34.8405 10.667 33.7353 11.5475 31.9412 11.5475Z" fill="black"/>
<path d="M11.8475 5.3999H6.97783C6.80163 5.3999 6.65266 5.47034 6.52931 5.62403L3.03726 9.94653C2.52466 10.5869 2.39651 11.1792 2.39651 12.0277V16.4463C1.25919 19.6321 0.538357 21.7934 0.00974331 23.7465C-0.0222939 23.8714 0.0257619 23.9386 0.137892 23.9386H0.666506C0.762617 23.9386 0.858729 23.8906 0.890766 23.8105C4.8794 13.6607 9.22044 8.63377 11.9436 5.62403C12.0557 5.49596 12.0077 5.3999 11.8475 5.3999Z" fill="black"/>
<path d="M11.9916 0.420985C11.6649 0.547458 11.3509 0.761982 11.2067 0.885253C9.76506 2.11796 8.80394 3.09453 7.89088 4.05508C7.77875 4.16715 7.82681 4.27921 7.987 4.27921H13.3853C13.8818 4.27921 14.1702 4.56738 14.1702 5.06366V11.1472C14.1702 11.3073 14.2983 11.3553 14.3944 11.2112L17.6462 6.96876C18.1748 6.28037 18.335 6.07225 18.4792 5.11169C18.6714 3.70288 18.5593 1.54163 17.7103 0.645114C16.9574 -0.155348 13.5615 -0.187366 11.9916 0.420985Z" fill="black"/>
<path d="M12.8086 6.61659C9.4607 10.3467 6.84966 14.269 4.43086 18.9917C4.36999 19.1102 4.44687 19.2159 4.59104 19.1678L9.58885 17.631C10.1527 17.4581 10.4699 17.2307 10.7422 16.7825L12.9688 13.1163C13.0168 13.0203 13.0328 12.9082 13.0328 12.8282V6.71265C13.0328 6.55256 12.9207 6.48852 12.8086 6.61659Z" fill="black"/>
</g>
<defs>
<clipPath id="clip0_6_5826">
<rect width="125.218" height="24" fill="white"/>
</clipPath>
</defs>
</svg>
